<svg xmlns="http://www.w3.org/2000/svg" width="143" height="72" fill="none">
  <path fill="#FF6A00" d="M140.75 43.19c-.19-.08-.4-.13-.6-.16a2.01 2.01 0 0 0-1.97 1.08c-.5.77-.87 1.6-1.3 2.38a21.66 21.66 0 0 1-2.28 3.03c-.78.92-1.67 1.73-2.5 2.63a.53.53 0 0 1-.61.17.53.53 0 0 1-.2-.53c.24-2.24.43-4.49.73-6.72l.38-3.02.5-4.33 1.4-10.8c.14-.75.18-2.2-.8-3.05a2.63 2.63 0 0 0-1.4-.66 2.63 2.63 0 0 0-1.49.35c-1.31.96-1.77 2.99-2.13 4.5-.85 3.56-1.07 7.32-2.78 10.62-.34.66-.74 1.29-1.2 1.88-.3.41-.67.77-1.1 1.06-.42.29-.94.4-1.45.32a2.1 2.1 0 0 1-1.4-1.24 5.2 5.2 0 0 1-.36-1.9c-.1-3.2.37-6.39 1.4-9.42.28-.73.48-1.48.6-2.25.17-.94.17-2.25-.66-3.06a3.11 3.11 0 0 0-2.97-.76 3.86 3.86 0 0 0-2.21 2.33c-1.18 2.73-1.5 5.61-1.87 8.55a14.22 14.22 0 0 1-3.95 8.46c-.42.46-.87.88-1.36 1.27a2.68 2.68 0 0 1-1.97.65 2.25 2.25 0 0 1-1.66-1.23 5.22 5.22 0 0 1-.55-1.86c-.19-1.2-.26-2.4-.21-3.61-.03-1.3.06-2.61.25-3.9.46-2.3 4.02-11.43 4.8-13.8a70.24 70.24 0 0 0 2.08-7.38c.5-2.22.72-4.5.66-6.79-.06-1.6-.41-3.37-1.7-4.32a3.74 3.74 0 0 0-3.58-.3 5.82 5.82 0 0 0-2.7 2.52c-.59 1.1-1.03 2.28-1.31 3.5a75.87 75.87 0 0 0-1.59 7.64l-1.21 7.48c-.34 2.1-1.21 9.54-1.55 11.1-.39 1.62-.98 3.19-1.77 4.66-.8 1.56-1.53 3.15-2.41 4.68-.26.5-.6.95-1.04 1.31a1.59 1.59 0 0 1-1.6.23 2.17 2.17 0 0 1-1-1.7c-.47-2.56-.06-5.17.43-7.7.48-2.52 2.63-14.17 3.08-16.85.58-3.12 1.43-6.2 1.68-9.39.19-2.3.54-5.16-1.17-7a2.9 2.9 0 0 0-2.63-.8 4 4 0 0 0-2.29 1.73c-.65.84-1.16 1.77-1.53 2.77a38.8 38.8 0 0 0-1.53 5.39l-.17.77c-.5 2.26-.87 4.54-1.12 6.85-.14 1.23-.25 2.47-.35 3.72-.05.6-.11 1.21-.13 1.82.04.48-.02.97-.18 1.43-.07.16-.17.3-.3.4-.55.34-1.2.47-1.84.35-3.29-.1-6.2 1.76-8.02 4.45a20.73 20.73 0 0 0-2.28 4.93c-.1.3-.22.59-.35.89-.36 1.03-.8 2.04-1.31 3.02-.55.95-1.17 1.86-1.87 2.71-.68.89-1.44 1.7-2.3 2.42-.85.77-1.88 1.3-3 1.53a3.73 3.73 0 0 1-3.23-1.19 5.56 5.56 0 0 1-1.24-3.18c-.06-.33 0-.68.18-.97a1.71 1.71 0 0 1 1.31-.46 9.58 9.58 0 0 0 8.14-6c.8-1.95 1.06-4.08.73-6.16a7.01 7.01 0 0 0-1.1-2.85c-.6-.84-1.4-1.5-2.35-1.91a7.72 7.72 0 0 0-5.99.04c-3.39 1.36-5.6 4.37-6.7 9.2l-.13.51c-.65 2.9-1.36 5.92-3.44 7.99a2.5 2.5 0 0 1-2.17.85.96.96 0 0 1-.65-.47c-.55-.93.04-3.14.9-5.92.23-.7.43-1.43.58-2.16a5.46 5.46 0 0 0-.65-2.93 4.9 4.9 0 0 0-2.17-1.9 6.7 6.7 0 0 0-2.76-.34h-.3c-.3.01-.6-.02-.89-.1a1.17 1.17 0 0 1-.85-.76c-.08-.45-.05-.92.09-1.36l.12-.42a2.23 2.23 0 0 0-.97-2.42 3.04 3.04 0 0 0-2.76-.21 4.74 4.74 0 0 0-2.16 2.04 4.6 4.6 0 0 0-.6 2.85c.28.9.37 1.86.26 2.8-.35 1.65-1.32 3-2.3 4.37-.22.3-.43.66-.66.93A29 29 0 0 1 28.01 41a16.3 16.3 0 0 1-7.3 3.94c-4.41.97-8.92-.35-11.3-4.34a16.99 16.99 0 0 1-2.07-7.5 31.77 31.77 0 0 1 2.59-14.83c1.93-4.49 4.8-8.99 10.13-9.55 2.07-.21 4.45.5 5.38 2.37.65 1.36.44 3 0 4.46-.45 1.46-1.04 2.9-1.07 4.42-.03 1.51.74 3.2 2.19 3.64 1.45.44 2.94-.48 3.76-1.7.81-1.23 1.1-2.73 1.45-4.16a36.04 36.04 0 0 1 3.91-9.64c.82-1.38 1.77-2.89 1.49-4.47a3.2 3.2 0 0 0-2.18-2.47 3.2 3.2 0 0 0-3.18.86c-.8.84-1.2 2.17-2.3 2.55-1.09.37-2.05-.32-2.99-.83-3.52-1.89-7.89-1.82-11.6-.3a20.57 20.57 0 0 0-8.97 7.7A34.3 34.3 0 0 0 .12 33.53c.15 2.4.57 4.79 1.26 7.1.7 2.31 1.8 4.5 3.23 6.45a13.68 13.68 0 0 0 5.57 4.42c2.23.9 4.63 1.31 7.04 1.23a18.3 18.3 0 0 0 6.97-1.7 25.2 25.2 0 0 0 6.07-4 31.24 31.24 0 0 0 8.66-11.68 2.51 2.51 0 0 1 1.19-1.56 1.08 1.08 0 0 1 1.18.09c.36.16.65.45.81.8.2.65.2 1.35-.04 1.98v.09c-.17.59-.34 1.18-.55 1.78-.81 2.5-1.4 4.8-.93 7.05a6.57 6.57 0 0 0 1.48 3.1 5 5 0 0 0 2.97 1.57 7.67 7.67 0 0 0 4.3-.78 9.86 9.86 0 0 0 3.37-2.63c.28-.35.54-.88 1.08-.84a.9.9 0 0 1 .65.38c.14.2.26.43.35.66a8.63 8.63 0 0 0 7.88 4.97h.43a10.3 10.3 0 0 0 4.65-1.31c1.52-.9 2.92-2 4.17-3.26.1-.11.24-.2.39-.25a.66.66 0 0 1 .58.25c.13.19.23.39.3.6a6.53 6.53 0 0 0 4.87 3.88 6.51 6.51 0 0 0 5.86-2.1c.28-.38.6-.73.96-1.04a1.4 1.4 0 0 1 1.32-.28c.6.25.8 1 1.07 1.6a3.95 3.95 0 0 0 3.61 2.21 6.8 6.8 0 0 0 4.53-2.02 31.56 31.56 0 0 0 3.07-3.6c.16-.24.37-.44.6-.59a.78.78 0 0 1 .81 0c.16.15.28.35.34.56a6.4 6.4 0 0 0 6 3.82 9.8 9.8 0 0 0 6.5-3.04 3.56 3.56 0 0 1 1.9-1.26c.82-.1 1.21.66 1.5 1.32.3.78.81 1.47 1.48 1.97a3.83 3.83 0 0 0 3.24.6 5.45 5.45 0 0 0 2.8-1.88c.42-.52.66-1.19 1.12-1.67.47-.48.75.16.8.57.07.7.08 1.4.04 2.1-.07 1.39-.3 2.76-.48 4.14-.01.4-.14.8-.38 1.12a1.68 1.68 0 0 1-1.5.38c-.67-.1-1.25-.15-1.9-.18l-.8-.09c-1.19-.08-2.38-.2-3.61-.25h-1.1a17.4 17.4 0 0 0-6.08.94 10.05 10.05 0 0 0-5.92 6.02 7.33 7.33 0 0 0 1.36 7.22 9.57 9.57 0 0 0 6.8 3.23c2.63.1 5.24-.43 7.64-1.52a17.34 17.34 0 0 0 10.07-11.67.3.3 0 0 1 .13-.1 17.75 17.75 0 0 0 4.8-2.5 20.65 20.65 0 0 0 5.34-6c.45-.74.8-1.52 1.22-2.27.36-.57.62-1.2.78-1.85a2.54 2.54 0 0 0-.32-1.98c-.23-.3-.54-.53-.9-.65M59.9 33.56c.1-.43.23-.85.35-1.23.35-1.07.87-2.08 1.53-2.98.22-.32.5-.6.8-.82.33-.22.72-.32 1.1-.27a1.63 1.63 0 0 1 1.19 1.39 6.21 6.21 0 0 1-.66 3.29 6.5 6.5 0 0 1-1.84 2.46c-.33.25-.69.47-1.06.65-.21.09-.43.14-.66.17h-.09a.74.74 0 0 1-.76-.5c-.1-.73-.04-1.47.15-2.18m25.5-1.1c-.04.45-.15.9-.18 1.32-.03.57-.06 1.14-.07 1.71 0 .97 0 1.94.08 2.91.07.97.27 1.76-.08 2.63a6.45 6.45 0 0 1-3.36 3.77c-.44.23-.94.34-1.44.35-.13 0-.21-.04-.34-.04a1.93 1.93 0 0 1-1.57-1.07c-.29-.5-.5-1.04-.6-1.61-.45-2.2-.3-4.5.43-6.63a8.9 8.9 0 0 1 2.26-3.52 5.13 5.13 0 0 1 3.34-1.4 1.62 1.62 0 0 1 1.2.37c.23.27.36.61.34.97v.23m38.01 27.47c-.11.3-.27.58-.46.83-.28.5-.6.96-.98 1.38-.57.65-1.2 1.25-1.87 1.8a14.26 14.26 0 0 1-4.6 2.29c-.94.25-1.9.39-2.88.42h-.21a4.8 4.8 0 0 1-3.06-1.06c-.47-.38-.8-.9-.93-1.5-.09-.6.02-1.23.3-1.78.45-1 1.25-1.82 2.25-2.3 1.9-.8 3.97-1.12 6.03-.92l2.38.13c.65.03 1.26.08 1.9.13.34 0 .66 0 1.02.06.27 0 .53.01.8.04.3.08.36.27.3.48"/>
  <path fill="#505759" d="M42.98 65.32v-7.45h1v2.84a2.18 2.18 0 0 1 1.78-.92c1.4 0 2.4 1.1 2.4 2.84 0 1.72-1.01 2.82-2.4 2.82a2.22 2.22 0 0 1-1.77-.9v.77h-1Zm1-1.54a1.83 1.83 0 0 0 1.5.78c1.01 0 1.64-.8 1.64-1.93 0-1.14-.63-1.94-1.63-1.94a1.86 1.86 0 0 0-1.5.8v2.29ZM49.6 66.53c.15.05.3.08.45.09a.74.74 0 0 0 .79-.53l.31-.72-2.22-5.45h1.1l1.68 4.24 1.7-4.24h1.08l-2.67 6.43a1.7 1.7 0 0 1-1.71 1.16c-.22 0-.44-.03-.66-.08l.16-.9ZM58.74 65.32v-7.45h3.12a2.22 2.22 0 0 1 2.38 2.29 2.23 2.23 0 0 1-2.38 2.29H59.9v2.87h-1.15Zm3-6.47h-1.85v2.63h1.88a1.31 1.31 0 1 0-.03-2.63ZM67.88 59.8c1.62 0 2.63 1.25 2.63 2.9v.25h-4.26a1.77 1.77 0 0 0 1.83 1.68c.6 0 1.17-.24 1.6-.66l.47.66c-.6.54-1.37.83-2.17.8a2.7 2.7 0 0 1-2.8-2.83 2.72 2.72 0 0 1 2.7-2.8Zm-1.65 2.42h3.28a1.59 1.59 0 0 0-1.63-1.6 1.66 1.66 0 0 0-1.65 1.63v-.03ZM75.38 65.32v-.6a2.32 2.32 0 0 1-1.76.73 1.8 1.8 0 0 1-1.33-3.08 1.74 1.74 0 0 1 1.33-.47 2.25 2.25 0 0 1 1.76.72v-.9c0-.65-.55-1.07-1.32-1.07a2.21 2.21 0 0 0-1.62.71l-.43-.69a3.04 3.04 0 0 1 2.21-.88c1.17 0 2.16.51 2.16 1.89v3.64h-1Zm0-2.1a1.7 1.7 0 0 0-1.39-.61 1.11 1.11 0 0 0-1.23 1.07 1.1 1.1 0 0 0 1.23 1.07 1.7 1.7 0 0 0 1.39-.61v-.92ZM78.3 65.32v-5.4h1v.83a2.28 2.28 0 0 1 1.76-.95v1.02a1.75 1.75 0 0 0-.34 0 1.9 1.9 0 0 0-1.44.77v3.76l-.98-.03ZM82.34 63.88c.48.48 1.13.76 1.81.77.76 0 1.17-.32 1.17-.77s-.62-.72-1.32-.87c-.92-.21-1.97-.46-1.97-1.62 0-.86.74-1.6 2.06-1.6a2.9 2.9 0 0 1 2.06.77l-.45.7a2.11 2.11 0 0 0-1.6-.65c-.66 0-1.1.26-1.1.7 0 .44.58.66 1.25.78.93.21 2.05.47 2.05 1.71 0 .93-.76 1.65-2.18 1.65a3.08 3.08 0 0 1-2.25-.83l.47-.74ZM87.5 62.62a2.67 2.67 0 0 1 2.73-2.83 2.67 2.67 0 0 1 2.72 2.83 2.67 2.67 0 0 1-2.72 2.83 2.68 2.68 0 0 1-2.73-2.83Zm4.4 0a1.75 1.75 0 0 0-1.67-1.93 1.75 1.75 0 0 0-1.68 1.93 1.76 1.76 0 0 0 1.68 1.94 1.75 1.75 0 0 0 1.68-1.94ZM98.16 65.32v-3.45c0-.9-.46-1.18-1.15-1.18a1.91 1.91 0 0 0-1.49.78v3.85h-1v-5.4h1v.77a2.55 2.55 0 0 1 1.9-.9 1.55 1.55 0 0 1 1.74 1.74v3.8h-1Z"/>
</svg>
